<svg width="91" height="29" viewBox="0 0 91 29" fill="none" xmlns="http://www.w3.org/2000/svg">
<path d="M91 27.1005C90.9991 27.4324 90.8668 27.7505 90.632 27.9852C90.3972 28.2199 90.079 28.352 89.747 28.3528H1.25296C0.921113 28.3517 0.603154 28.2194 0.368433 27.9848C0.133712 27.7502 0.00127317 27.4323 0 27.1005V1.29603C0 0.606073 0.565766 0.041687 1.25296 0.041687H89.747C90.437 0.041687 91 0.606073 91 1.29603" fill="#222221"/>
<path d="M81.333 18.151C81.333 16.9615 80.5989 16.1984 79.4701 16.1984H66.9536V20.1988H79.4694C80.661 20.1988 81.333 19.464 81.333 18.151ZM80.5989 9.85081C80.5989 8.7524 79.8979 8.01966 78.8595 8.01966H66.9536V11.6813H78.8595C79.9896 11.6813 80.5989 11.041 80.5989 9.85081ZM60.174 25.2327V3.04368H80.1725C85.1491 3.04368 87.5619 5.05836 87.5619 9.2402C87.5619 11.6212 86.5229 13.0853 84.295 13.9416C87.1031 14.3963 88.3243 16.0466 88.3243 19.2204C88.3243 23.492 86.1261 25.2327 81.2095 25.2327M50.1344 10.8271C50.1344 9.05736 49.0036 8.326 46.5625 8.326H41.1284C36.732 8.326 35.6639 8.90488 35.6639 12.6886V15.7707C35.6639 19.2515 37.1598 19.9525 41.1284 19.9525H45.066C48.8221 19.9525 50.3173 19.5571 50.3173 16.9008V16.6566H57.1879C57.2175 17.2368 57.2479 17.755 57.2479 18.2745C57.2479 21.0205 56.6062 22.8503 55.0193 24.0122C53.34 25.2638 50.6836 25.506 46.8075 25.506H39.2338C35.724 25.506 33.2505 25.3562 31.3269 23.859C29.4654 22.3936 28.7637 20.3796 28.7637 17.3583V11.3156C28.7637 4.66301 31.6636 2.77115 39.2338 2.77115H46.8081C50.6843 2.77115 53.3096 2.95399 54.9269 4.20281C56.3648 5.30399 56.9747 7.13445 56.9747 9.78941C56.9747 10.1854 56.9747 10.6139 56.9443 11.041H50.1351M23.6283 23.6769C22.1007 25.1403 19.8418 25.4784 16.5148 25.4784H11.7817C5.15674 25.4784 3.05029 23.9198 3.05029 18.5505V15.6202H9.40136C9.40136 15.8962 9.37031 16.1701 9.37031 16.4123C9.37031 19.099 10.041 19.9532 12.6973 19.9532H15.751C18.1935 19.9532 18.6199 19.0376 18.6199 16.8104V3.04368H25.3987V18.9755C25.3987 20.8998 24.6957 22.6385 23.6283 23.6762" fill="white"/>
<path d="M3.03308 12.1684H12.155V3.04715H3.03308V12.1684Z" fill="#E7AF28"/>
<path d="M4.71725 4.78583C4.82765 4.80239 9.59112 5.58894 9.71324 5.60757C9.83536 5.62827 10.3052 5.67657 10.4915 6.21197C10.5288 6.31547 11.1208 8.09763 11.1484 8.18526C11.2539 8.51506 11.2091 8.86003 10.7744 9.00631C10.6323 9.05253 6.54426 10.3503 6.4939 10.3669C6.38074 10.4035 5.78048 10.6691 5.56176 9.97501C5.56176 9.97501 4.23773 5.81456 4.19978 5.68899C4.13838 5.49304 4.10181 5.32883 4.10181 5.20601C4.10043 4.66647 4.61238 4.77203 4.71725 4.78583Z" fill="#222221" stroke="#222221" stroke-width="0.117302" stroke-miterlimit="3.864"/>
<path d="M4.83103 5.00595C5.08218 5.04735 9.44548 5.75662 9.63936 5.78974C9.83323 5.82148 10.1582 5.8684 10.2962 6.27409C10.321 6.35206 10.9137 8.12318 10.9385 8.20046C10.9606 8.27704 11.1331 8.68136 10.6488 8.83177C10.5749 8.85592 6.47314 10.1337 6.37378 10.1641C6.27443 10.1944 5.88667 10.3566 5.72729 9.79633C5.72729 9.79633 4.47502 5.827 4.41775 5.64968C4.37612 5.53527 4.3463 5.4169 4.32874 5.29642C4.3046 4.97007 4.50813 4.9611 4.67234 4.98318C4.73513 4.99008 4.7924 5.00043 4.83103 5.00595Z" fill="#E7AF28" stroke="#222221" stroke-width="0.117302" stroke-miterlimit="3.864"/>
<path d="M8.6748 5.92566L9.56761 6.05468C9.90845 6.10988 10.0547 6.38379 10.0968 6.51212C10.112 6.55421 10.2058 6.85296 10.2169 6.88608C10.3107 7.13516 10.0747 7.26694 10.0747 7.26694C10.0747 7.26694 10.3445 7.31593 10.4349 7.53119L10.6232 8.07971C10.6377 8.13077 10.7605 8.52887 10.3466 8.67376C10.2914 8.69377 9.62419 8.8704 9.62419 8.8704L8.6748 5.92566Z" fill="#222221" stroke="#222221" stroke-width="0.117302" stroke-miterlimit="3.864"/>
<path d="M9.35864 6.53766L9.6022 6.55491C9.64981 6.56181 9.68292 6.58251 9.70293 6.6239C9.71604 6.65012 9.7878 6.86332 9.79608 6.88609C9.80505 6.91024 9.84161 7.03788 9.73398 7.04133H9.52354L9.35864 6.53766ZM9.69948 7.60433C9.69948 7.60433 9.84782 7.59743 9.8906 7.59674C9.93407 7.59674 10.0148 7.58985 10.0631 7.68506C10.0748 7.70852 10.1507 7.93827 10.1611 7.96794C10.17 7.99554 10.1928 8.11973 10.0928 8.1425C10.0741 8.1494 9.89888 8.18114 9.89888 8.18114L9.69948 7.60433Z" fill="#E7AF28" stroke="#222221" stroke-width="0.117302" stroke-miterlimit="3.864"/>
<path d="M5.37134 5.43094L6.70986 5.63103L6.92512 6.35962L6.61188 6.33271C6.61188 6.33271 7.38257 8.79587 7.4081 8.87176C7.50469 9.1505 7.56403 9.43891 7.14315 9.5769C7.08795 9.59622 6.69606 9.70799 6.64845 9.71972C6.4049 9.7763 6.09648 9.7763 5.97643 9.39889L5.48656 7.87684L6.08751 7.83406C6.08751 7.83406 6.3359 8.61579 6.35591 8.67443C6.41042 8.83795 6.44491 8.90005 6.61533 8.86072C6.7416 8.82967 6.73608 8.78138 6.70365 8.67443C6.68778 8.62821 5.9647 6.28304 5.9647 6.28304L5.62317 6.25613L5.37134 5.43094ZM7.3667 5.72141C7.42603 5.72969 7.85519 5.79938 7.92901 5.81042C8.00146 5.82145 8.40164 5.88769 8.50789 6.25544C8.5348 6.34858 8.74592 6.99646 8.74592 6.99646L8.23742 6.98956C8.23742 6.98956 8.1429 6.67493 8.12289 6.62112C8.07321 6.48934 8.06977 6.45553 7.91866 6.43207C7.76411 6.41482 7.77239 6.4783 7.8062 6.58662C7.82276 6.64458 8.28503 8.17421 8.30642 8.23976C8.36024 8.41432 8.37542 8.48262 8.53618 8.4502C8.67831 8.41846 8.65209 8.34187 8.61552 8.21423C8.60448 8.17145 8.45821 7.71401 8.45821 7.71401L8.96395 7.67606C8.96395 7.67606 9.22062 8.48814 9.23373 8.52609C9.2489 8.56473 9.35447 8.89453 9.04882 9.03459C9.01018 9.05391 9.01018 9.05529 8.96878 9.06909C8.93014 9.0822 8.52031 9.19742 8.48305 9.20846C8.44165 9.21881 8.05321 9.33679 7.92556 8.95387C7.91452 8.91592 7.0914 6.22163 7.04794 6.09054C6.97342 5.86561 7.05277 5.67311 7.3667 5.71934V5.72141Z" fill="#222221" stroke="#222221" stroke-width="0.117302" stroke-miterlimit="3.864"/>
</svg>
